<svg width="163" height="138" viewBox="0 0 163 138" fill="none" xmlns="http://www.w3.org/2000/svg">
<path d="M21.5377 19.7143V0H35.6246V19.7143H56.7551V32.8571H35.6246V52.5714H21.5377V32.8571H0.407227V19.7143H21.5377ZM42.6681 59.1429V39.4286H63.7985V19.7143H113.103L125.992 32.8571H148.32C156.068 32.8571 162.407 38.7714 162.407 46V124.857C162.407 132.086 156.068 138 148.32 138H35.6246C27.8768 138 21.5377 132.086 21.5377 124.857V59.1429H42.6681ZM91.9724 118.286C111.412 118.286 127.19 103.566 127.19 85.4286C127.19 67.2914 111.412 52.5714 91.9724 52.5714C72.5324 52.5714 56.7551 67.2914 56.7551 85.4286C56.7551 103.566 72.5324 118.286 91.9724 118.286ZM69.4333 85.4286C69.4333 97.06 79.5055 106.457 91.9724 106.457C104.439 106.457 114.512 97.06 114.512 85.4286C114.512 73.7971 104.439 64.4 91.9724 64.4C79.5055 64.4 69.4333 73.7971 69.4333 85.4286Z" fill="#7B94BC"/>
</svg>